<svg width="205" height="84" viewBox="0 0 205 84" fill="none" xmlns="http://www.w3.org/2000/svg">
<path fill-rule="evenodd" clip-rule="evenodd" d="M6.30458 61.9539L5.66947 62.0327L5.19505 62.1406L4.72073 62.2486L3.86288 62.6591L3.00503 63.0696L2.4193 63.6441L1.83356 64.2187L1.48979 64.9015L1.14611 65.5842L1.01648 66.196L0.886854 66.8076L0.885189 67.4191L0.883618 68.0306L0.975985 68.5286L1.06835 69.0266L1.40611 69.7152L1.74387 70.4037L2.49262 71.1602L3.24136 71.9167L4.02728 72.4234L4.81319 72.9301L6.7728 73.9596L8.73241 74.9891L9.223 75.277L9.7136 75.5649L10.2802 75.9677L10.8468 76.3705L11.4101 76.9852L11.9733 77.6L12.161 78.1015L12.3487 78.6032L12.3478 79.2239L12.3469 79.8445L12.1315 80.3071L11.9161 80.7697L11.4102 81.2317L10.9043 81.6937L10.4014 81.9379L9.89852 82.1821L9.1678 82.3433L8.43709 82.5045L7.45728 82.4527L6.47748 82.4007L5.92272 82.2511L5.36795 82.1015L4.67866 81.7616L3.98937 81.4218L3.28546 80.7257L2.58156 80.0294L2.20728 79.2807L1.833 78.532L1.79491 78.4176L1.75682 78.3033L1.12845 78.5548L0.5 78.8064L0.560468 79.047L0.620844 79.2875L0.945844 79.9359L1.27093 80.5842L1.68386 81.1634L2.09679 81.7426L2.66903 82.2197L3.24136 82.6969L3.98105 83.0404L4.72073 83.3838L5.36795 83.5539L6.01518 83.7241L7.58701 83.7234L9.15884 83.7229L9.99098 83.5145L10.8231 83.3062L11.609 82.9215L12.395 82.5369L13.0916 81.8379L13.7881 81.139L14.0877 80.567L14.3874 79.9951L14.5701 79.2809L14.7527 78.5667V77.9075V77.2482L14.6105 76.7023L14.4683 76.1564L14.1778 75.6486L13.8873 75.1408L13.245 74.4647L12.6028 73.7886L11.9903 73.3365L11.3779 72.8844L10.592 72.4235L9.80606 71.9625L8.09554 71.057L6.38502 70.1514L5.78403 69.7843L5.18303 69.4171L4.6745 69.0257L4.16597 68.6343L3.73667 68.1747L3.30738 67.715L3.13845 67.4L2.96943 67.085L2.96675 66.3915L2.96398 65.6981L3.17932 65.2608L3.39466 64.8236L3.80343 64.4205L4.21229 64.0175L4.71675 63.7705L5.22122 63.5235L5.79947 63.3754L6.37772 63.2272L7.53708 63.2703L8.69653 63.3134L9.44343 63.557L10.1902 63.8006L10.8581 64.2695L11.5258 64.7385L11.9815 65.357L12.4371 65.9754L12.7396 66.6457L13.0422 67.3159L13.1142 67.316L13.1861 67.3161L13.7367 67.0382L14.2873 66.7602L14.0966 66.2754L13.9059 65.7905L13.6344 65.2803L13.3629 64.7702L12.9475 64.241L12.5322 63.7116L12.0123 63.3036L11.4924 62.8957L10.9003 62.6069L10.3083 62.3183L9.54865 62.1415L8.78899 61.9647L7.86439 61.9198L6.93978 61.875L6.30458 61.9539ZM36.5426 62.3849L36.4809 62.4465V62.9859V63.5252H43.4617H50.4425V62.9242V62.3232H43.5234H36.6042L36.5426 62.3849ZM71.431 72.8175V83.3118H72.8634H74.2958L74.3197 77.9997L74.3435 72.6875L80.4189 78.0015L86.4942 83.3154L88.4844 83.2905L90.4746 83.2656L83.8549 77.2137L77.235 71.1618L77.4711 70.9726L77.7072 70.7834L82.6546 66.6227L87.6021 62.4619L87.6068 62.3926L87.6116 62.3232H86.6576H85.7037L80.0236 66.9773L74.3435 71.6314L74.3196 66.9773L74.2956 62.3232H72.8633H71.431V72.8175ZM109.896 69.6021L109.897 76.8858L110.077 77.7642L110.258 78.6425L110.673 79.4747L111.088 80.3068L111.508 80.8359L111.927 81.3649L112.552 81.8834L113.177 82.4019L114.102 82.8537L115.026 83.3056L115.57 83.4457L116.115 83.5857L116.911 83.6924L117.708 83.799L119.048 83.7424L120.389 83.6857L121.193 83.5039L121.997 83.3222L122.687 83.0458L123.377 82.7695L123.981 82.4022L124.586 82.0349L125.006 81.6836L125.426 81.3323L125.879 80.7733L126.332 80.2144L126.658 79.6134L126.984 79.0124L127.224 78.2404L127.465 77.4684L127.559 76.5761L127.654 75.6838L127.627 69.0266L127.601 62.3695H126.861H126.121L126.075 69.7201L126.029 77.0707L125.782 77.7462L125.535 78.4217L125.144 79.0869L124.753 79.7521L123.958 80.5405L123.163 81.3289L122.423 81.7079L121.683 82.0869L121.175 82.2602L120.666 82.4334L119.464 82.4298L118.262 82.4263L117.528 82.2172L116.793 82.0081L116.082 81.6379L115.37 81.2678L114.81 80.7608L114.25 80.2539L113.809 79.5903L113.368 78.9266L113.087 78.1836L112.807 77.4406L112.761 69.905L112.715 62.3695L111.305 62.344L109.895 62.3184L109.896 69.6021ZM149.214 69.7894L149.244 77.2556L149.442 77.9953L149.641 78.735L149.844 79.1973L150.048 79.6596L150.447 80.2803L150.846 80.9011L151.409 81.455L151.972 82.0089L152.663 82.4396L153.354 82.8703L154.047 83.1396L154.741 83.409L155.456 83.5675L156.171 83.726L157.835 83.7267L159.5 83.7274L160.275 83.5605L161.05 83.3935L161.477 83.254L161.904 83.1144L162.74 82.7051L163.577 82.2957L164.189 81.791L164.801 81.2863L165.27 80.7063L165.739 80.1263L166.059 79.4768L166.378 78.8275L166.636 77.9953L166.894 77.1632L166.922 69.7432L166.95 62.3232H166.21H165.471L165.439 69.5583L165.408 76.7933L165.251 77.3122L165.094 77.8311L164.896 78.2831L164.698 78.735L164.304 79.3481L163.91 79.9613L163.396 80.4743L162.883 80.9873L162.317 81.3718L161.751 81.7562L161.226 81.9887L160.702 82.221L160.101 82.3487L159.5 82.4764L158.888 82.4781L158.276 82.4797L157.477 82.3404L156.679 82.2012L156.076 81.9598L155.473 81.7184L154.899 81.3474L154.325 80.9762L153.815 80.4459L153.305 79.9155L152.956 79.3253L152.607 78.735L152.355 77.9953L152.103 77.2556L152.077 69.7894L152.05 62.3232H150.617H149.183L149.214 69.7894ZM186.637 63.0167V63.7102H190.428H194.219V73.511V83.3118H195.652H197.085V73.511V63.7102H200.876H204.667V63.0167V62.3232H195.652H186.637V63.0167ZM37.1282 71.1722L36.897 71.2121L36.2882 71.39L35.6795 71.568L35.1312 71.9223L34.5829 72.2767L34.1519 72.7202L33.7209 73.1637L33.4324 73.7049L33.144 74.2459L32.9602 74.78L32.7764 75.314L32.6885 76.1617L32.6005 77.0095L32.6876 77.9185L32.7746 78.8275L32.962 79.4127L33.1494 79.9979L33.4467 80.556L33.7442 81.114L34.1649 81.5823L34.5855 82.0506L35.1331 82.4049L35.6808 82.7593L36.0482 82.8693L36.4156 82.9793L36.459 83.1456L36.5025 83.3118H43.4725H50.4425V82.6646V82.0173H43.5323H36.6223L36.1435 81.7752L35.6649 81.5329L35.2176 81.1638L34.7704 80.7946L34.3774 80.2734L33.9843 79.7521L33.7854 79.2435L33.5866 78.735L33.5451 77.9029L33.5036 77.0707L33.6594 76.4697L33.8151 75.8687L34.0882 75.3602L34.3613 74.8517L34.6328 74.5524L34.9043 74.2531L35.3262 73.9311L35.748 73.6091L36.172 73.4216L36.596 73.234L37.1625 73.1421L37.7291 73.0501L42.514 73.0494L47.2988 73.0487V72.0778V71.107L42.3291 71.1196L37.3593 71.1322L37.1282 71.1722Z" fill="white"/>
<mask id="path-2-inside-1_759_46" fill="white">
<path fill-rule="evenodd" clip-rule="evenodd" d="M100.057 0.407749V0.482124H99.5988H99.1402V0.556499V0.630874L98.8737 0.631146L98.6071 0.63142L98.5142 0.64679L98.4212 0.662161V0.720893V0.779624H98.1857H97.9502V0.853999V0.928374H97.7677H97.5852L97.4702 0.944141L97.3552 0.959909V1.01852V1.07712H97.2064H97.0577V1.1515V1.22587H96.9496H96.8415L96.7265 1.24164L96.6114 1.25741V1.31602V1.37462H96.4627H96.3139V1.44657V1.51851L96.1652 1.53577L96.0164 1.55303V1.61014V1.66726L95.8677 1.68452L95.7189 1.70178V1.75889V1.81601L95.5702 1.83327L95.4214 1.85053V1.91007V1.96962H95.347H95.2727V2.0408V2.11198L95.1239 2.12879L94.9752 2.14562V2.2048V2.26398L94.8946 2.27176L94.814 2.27952L94.8063 2.34611L94.7987 2.41268L94.6638 2.42953L94.5289 2.44637V2.5055V2.56462H94.4545H94.3802V2.63744V2.71023L94.2996 2.71801L94.219 2.72577L94.2113 2.79236L94.2037 2.85893L94.0688 2.87578L93.9339 2.89262V2.96414V3.03567H93.8612H93.7885L93.7806 3.10384L93.7728 3.17202L93.7061 3.17973L93.6394 3.18742L93.6317 3.25411L93.624 3.32077L93.5574 3.32848L93.4907 3.33617L93.483 3.40286L93.4753 3.46952L93.4086 3.47723L93.3419 3.48492L93.3342 3.55161L93.3265 3.61827L93.2599 3.62598L93.1932 3.63367L93.1855 3.70036L93.1778 3.76702L93.1111 3.77473L93.0444 3.78242L93.0367 3.84911L93.029 3.91577L92.9624 3.92348L92.8957 3.93117L92.888 3.99786L92.8803 4.06452L92.8136 4.07223L92.7469 4.07992L92.7392 4.14661L92.7315 4.21327L92.666 4.22086L92.6005 4.22844L92.5839 4.36192L92.5672 4.4954L92.5006 4.50308L92.434 4.51077L92.4263 4.59134L92.4185 4.67192H92.3597H92.301L92.2931 4.74009L92.2853 4.80827L92.2194 4.81591L92.1535 4.82352L92.1363 4.97085L92.1193 5.11817H92.0473H91.9754V5.19254V5.26692H91.9158H91.8563L91.839 5.41567L91.8218 5.56442H91.7498H91.6779V5.71317V5.86192H91.6035H91.5291V6.01067V6.15942H91.4548H91.3804V6.30817V6.45692H91.306H91.2316V6.60567V6.75442H91.1573H91.0829V6.91556V7.07671H91.0241H90.9654L90.95 7.16968L90.9347 7.26265L90.9344 7.38041L90.9341 7.49817H90.8755H90.8169L90.8011 7.6132L90.7854 7.72821V7.90904V8.08987L90.7172 8.09773L90.649 8.10556L90.6421 8.40926L90.6351 8.71296H90.5771H90.5192L90.5038 8.80593L90.4884 8.8989L90.4881 9.31416L90.4879 9.72942H90.4135H90.3391V19.8198V29.9101L92.2791 29.9038L94.219 29.8974L94.2252 20.0489L94.2315 10.2005H94.2897H94.348L94.3641 9.97351L94.3802 9.7466V9.45289V9.15921H94.4387H94.4972L94.5129 9.02905L94.5285 8.8989L94.5287 8.71916L94.5289 8.53942H94.5876H94.6464L94.6618 8.44645L94.6771 8.35348L94.6774 8.22332L94.6777 8.09317H94.7363H94.7949L94.8107 7.97813L94.8264 7.86312V7.75501V7.64692H94.9008H94.9752V7.49817V7.34942H95.0348H95.0945L95.1115 7.22546L95.1286 7.1015H95.2361H95.3436L95.3515 7.15728L95.3594 7.21306L95.4276 7.2209L95.4958 7.22875V7.28907V7.34942H95.6198H95.7437V7.4114V7.47337H95.8181H95.8925V7.53302V7.59267L96.0164 7.60973L96.1404 7.62678V7.68643V7.74608H96.2024H96.2643V7.80806V7.87004H96.3387H96.4131V7.93202V7.994H96.5246H96.6362V8.05434V8.11466L96.7044 8.12252L96.7726 8.13035L96.7804 8.19853L96.7883 8.26671H96.8486H96.9089V8.32869V8.39067H96.9709H97.0329V8.45265V8.51462H97.0949H97.1568V8.5766V8.63858H97.2312H97.3056V8.69883V8.7591L97.3614 8.767L97.4171 8.77494L97.425 8.84311L97.4328 8.91129H97.4932H97.5535V9.03525V9.15921H97.6279H97.7023V9.22119V9.28317H97.7518H97.8014V9.34351V9.40383L97.8696 9.41169L97.9378 9.41952L97.9453 9.53572L97.9527 9.65194L98.0072 9.65968L98.0617 9.66744L98.0696 9.73561L98.0774 9.80379H98.1377H98.1981V9.92775V10.0517H98.2584H98.3187L98.3266 10.1199L98.3344 10.1881L98.3881 10.1957L98.4417 10.2034L98.4586 10.3259L98.4755 10.4484H98.5351H98.5948V10.5723V10.6963H98.6567H98.7187V10.8202V10.9442H98.7807H98.8427V11.0806V11.2169H98.9034H98.964L98.9715 11.3471L98.979 11.4772L99.0348 11.4852L99.0906 11.4931L99.0909 11.5843L99.0911 11.6756L99.1065 11.7685L99.1219 11.8615H99.165H99.208L99.2234 11.9545L99.2388 12.0474L99.2391 12.2148L99.2393 12.3821H99.3013H99.3633V12.63V12.878H99.4253H99.4873V21.4683V30.0586H100.392H101.297V21.6084V13.1582L101.281 12.9685L101.265 12.7788H101.219H101.173L101.173 12.6486L101.173 12.5185L101.157 12.3139L101.141 12.1094H101.098H101.056L101.04 12.0164L101.025 11.9235L101.025 11.7561L101.024 11.5888H100.978H100.931L100.916 11.5113L100.9 11.4338V11.2634V11.093H100.838H100.776V10.907V10.7211H100.714H100.652V10.5847V10.4484H100.594H100.535L100.519 10.3333L100.504 10.2183V10.1491V10.0799L100.448 10.072L100.392 10.0641L100.385 9.93395L100.377 9.80379H100.316H100.256V9.67983V9.55587H100.194H100.132V9.4815V9.40712H100.07H100.008V9.28317V9.15921H99.9482H99.8886L99.8717 9.03669L99.8549 8.91419L99.8012 8.90653L99.7476 8.8989L99.7397 8.83072L99.7319 8.76254H99.6716H99.6112V8.63858V8.51462H99.5492H99.4873V8.45265V8.39067H99.4269H99.3666L99.3587 8.32249L99.3509 8.25431L99.2966 8.2466L99.2424 8.23887L99.2346 8.18462L99.2269 8.13035L99.1733 8.12272L99.1196 8.11506L99.1028 7.99256L99.0859 7.87004H99.0263H98.9666V7.80806V7.74608H98.9046H98.8427V7.68574V7.62542L98.7745 7.61756L98.7063 7.60973L98.6986 7.55546L98.6909 7.50121L98.6366 7.49348L98.5824 7.48577L98.5745 7.41759L98.5667 7.34942H98.5063H98.446V7.28744V7.22546H98.384H98.322V7.16581V7.10616L98.1995 7.0893L98.077 7.07244L98.0694 7.01879L98.0617 6.96515L98.0075 6.95744L97.9532 6.9497L97.9455 6.89546L97.9378 6.84119L97.8696 6.83335L97.8014 6.82549V6.76518V6.70483H97.6775H97.5535V6.64285V6.58087H97.4915H97.4295V6.52209V6.46331L97.3056 6.44685L97.1816 6.43041V6.38333V6.33625L97.1134 6.3284L97.0453 6.32056L97.0376 6.26691L97.03 6.21326L96.9075 6.1964L96.785 6.17955V6.1199V6.06025H96.661H96.537V5.99827V5.93629H96.4007H96.2643V5.87664V5.81699L96.1404 5.79994L96.0164 5.78288V5.74976V5.71661L96.0722 5.70588L96.128 5.69512L96.0722 5.69175L96.0164 5.68837V5.62639V5.56442H96.0908H96.1652V5.49004V5.41567H96.2395H96.3139V5.3289V5.24212H96.3883H96.4627V5.16775V5.09337H96.537H96.6114V4.95702V4.82067H96.6858H96.7602V4.74872V4.67678L96.9089 4.65952L97.0577 4.64226V4.57032V4.49837H97.132H97.2064V4.424V4.34962H97.2808H97.3552V4.27525V4.20087H97.4295H97.5039V4.1389V4.07692H97.5783H97.6527V4.00497V3.93303L97.8014 3.91577L97.9502 3.89851V3.83897V3.77942H98.0231H98.096L98.1098 3.7571L98.1236 3.73477L98.3839 3.73177L98.6443 3.72874V3.80366V3.87858H99.0038H99.3633V3.93719V3.9958L99.4783 4.01157L99.5933 4.02733H99.6891H99.7848V4.08931V4.15129L99.9025 4.15156L100.02 4.15184L100.113 4.16721L100.206 4.18258V4.24131V4.30004H100.355H100.504V4.37442V4.44879H100.64H100.776V4.50834V4.56789L100.925 4.58514L101.074 4.6024V4.6591V4.7158L101.21 4.73283L101.347 4.74986V4.81005V4.87025H101.421H101.495V4.93044V4.99064L101.632 5.00767L101.768 5.0247V5.08227V5.13981L101.849 5.14759L101.929 5.15535L101.937 5.22353L101.945 5.29171H102.067H102.19V5.36608V5.44046H102.276H102.363V5.51483V5.58921H102.425H102.487V5.64834V5.70746L102.623 5.7245L102.76 5.74153V5.80172V5.86192H102.834H102.909V5.93629V6.01067H102.983H103.057V6.08504V6.15942H103.132H103.206V6.23379V6.30817H103.268H103.33V6.37014V6.43212H103.404H103.479V6.5065V6.58087H103.553H103.627V6.65525V6.72962H103.688H103.748L103.765 6.86598L103.782 7.00233H103.853H103.925V7.07671V7.15108H103.987H104.049V7.22546V7.29983H104.123H104.198V7.43619V7.57254H104.272H104.346V7.64692V7.72129H104.407H104.467L104.484 7.85765L104.501 7.994H104.56H104.619V8.06837V8.14275H104.694H104.768V8.27747V8.41216L104.836 8.42002L104.904 8.42785L104.912 8.57041L104.919 8.71296H104.978H105.037L105.054 8.84931L105.071 8.98567H105.13H105.189V9.13442V9.28317H105.264H105.338V9.43192V9.58067H105.397H105.456L105.471 9.67363L105.486 9.7666L105.487 9.88436L105.487 10.0021H105.549H105.611L105.611 10.1819L105.611 10.3616L105.627 10.4546L105.642 10.5475H105.701H105.76V10.831V11.1145L105.828 11.1223L105.896 11.1301L105.902 20.5944L105.908 30.0586H106.9H107.892V20.5278V10.9971L107.823 10.9892L107.755 10.9814L107.748 10.6281L107.742 10.2748H107.683H107.625L107.607 9.98973L107.589 9.70462H107.53H107.47V9.53455V9.36446L107.454 9.24945L107.439 9.13442H107.38H107.321V8.92369V8.71296H107.247H107.173V8.56421V8.41546H107.114H107.055L107.04 8.30042L107.024 8.18542V8.10209V8.01879H106.962H106.9V7.87004V7.72129H106.826H106.751V7.58657V7.45188L106.683 7.44402L106.615 7.43619L106.607 7.35561L106.599 7.27504H106.542H106.484L106.467 7.13869L106.45 7.00233H106.39H106.33V6.86598V6.72962H106.255H106.181V6.65525V6.58087H106.122H106.063L106.046 6.44452L106.029 6.30817H105.968H105.908V6.23379V6.15942H105.834H105.76V6.08504V6.01067H105.685H105.611V5.93629V5.86192H105.551H105.49L105.474 5.72695L105.457 5.59198L105.391 5.5844L105.326 5.57681L105.318 5.50863L105.31 5.44046H105.25H105.189V5.38011V5.3198L105.121 5.31194L105.053 5.3041L105.045 5.23744L105.038 5.17075L104.971 5.16306L104.904 5.15535L104.896 5.08718L104.889 5.019H104.83H104.771L104.763 4.95082L104.755 4.88265L104.687 4.87481L104.619 4.86695V4.80948V4.75199L104.483 4.73496L104.346 4.71793V4.65774V4.59754H104.272H104.198V4.52317V4.44879H104.123H104.049V4.37442V4.30004H103.914H103.78L103.772 4.23186L103.764 4.16369L103.696 4.15585L103.627 4.14799V4.09053V4.03303L103.491 4.016L103.355 3.99897V3.93878V3.87858H103.28H103.206V3.81903V3.75948L103.057 3.74223L102.909 3.72497V3.66827V3.61158L102.772 3.59454L102.636 3.57751V3.52017V3.46283L102.499 3.44579L102.363 3.42876V3.36857V3.30837H102.214H102.066V3.234V3.15962H101.917H101.768V3.1005V3.04137L101.632 3.02434L101.495 3.0073V2.94711V2.88692H101.285H101.074V2.81254V2.73817H100.863H100.652V2.67966V2.62112L100.498 2.59633L100.343 2.57152L100.498 2.56807L100.652 2.56462V2.50602V2.44741L100.767 2.43164L100.883 2.41587H101.065H101.247V2.35727V2.29866L101.362 2.28289L101.477 2.26712H101.734H101.991V2.20713V2.14711L102.146 2.13154L102.301 2.11594L103.714 2.12336L105.127 2.13077L105.135 2.19895L105.143 2.26712L105.408 2.2674L105.673 2.26767L105.766 2.28304L105.859 2.29841V2.3562V2.41401L106.088 2.42113L106.317 2.42827L106.325 2.49645L106.333 2.56462L106.449 2.5649L106.565 2.56517L106.658 2.58054L106.751 2.59591V2.65345V2.71102L106.906 2.71838L107.061 2.72577L107.069 2.79276L107.077 2.85974L107.218 2.86713L107.359 2.87452L107.366 2.94042L107.374 3.00634L107.521 3.02344L107.669 3.04053V3.09764V3.15476L107.817 3.17202L107.966 3.18928V3.24882V3.30837H108.04H108.115V3.38032V3.45226L108.264 3.46952L108.412 3.48678V3.54632V3.60587H108.487H108.561V3.67782V3.74976L108.71 3.76702L108.858 3.78428V3.85622V3.92817H108.933H109.007V3.99014V4.05212H109.082H109.156V4.12407V4.19601L109.305 4.21327L109.454 4.23053V4.30247V4.37442H109.528H109.602V4.44879V4.52317H109.677H109.751V4.59754V4.67192H109.825H109.9V4.74629V4.82067H109.974H110.049V4.89504V4.96942H110.123H110.197V5.04379V5.11817H110.272H110.346V5.19254V5.26692H110.418H110.49L110.507 5.41567L110.524 5.56442H110.596H110.668V5.63879V5.71317H110.729H110.789L110.797 5.78134L110.805 5.84952L110.871 5.85716L110.936 5.86477L110.954 6.0121L110.971 6.15942H111.043H111.115V6.23379V6.30817H111.174H111.234L111.251 6.45692L111.268 6.60567H111.34H111.412V6.68004V6.75442H111.472H111.531L111.548 6.90173L111.565 7.04907L111.631 7.05668L111.697 7.06431L111.705 7.20533L111.712 7.34634L111.779 7.35408L111.846 7.36181L111.853 7.50283L111.861 7.64384L111.928 7.65158L111.995 7.65931L112.002 7.80033L112.009 7.94134L112.076 7.94908L112.143 7.95681L112.151 8.11176L112.158 8.26671H112.216H112.273L112.289 8.35968L112.304 8.45265L112.304 8.5828L112.305 8.71296H112.363H112.422L112.437 8.80593L112.453 8.8989L112.453 9.08939L112.453 9.27987L112.521 9.28773L112.59 9.29556L112.597 9.58686L112.604 9.87817H112.661H112.719L112.735 9.9932L112.751 10.1082V20.009V29.9098H113.792H114.833V19.832V9.75421H114.759H114.685V9.36994V8.98567H114.61H114.536V8.68817V8.39067H114.461H114.387L114.387 8.19853L114.386 8.00639L114.371 7.91343L114.356 7.82046H114.297H114.238V7.69997V7.57946L114.223 7.46445L114.207 7.34942H114.148H114.09V7.20067V7.05192H114.015H113.941V6.94382V6.83571L113.925 6.7207L113.909 6.60567H113.851H113.792V6.45692V6.30817H113.72H113.648L113.631 6.15942L113.614 6.01067H113.554H113.495V5.93629V5.86192H113.42H113.346V5.71317V5.56442H113.274H113.202L113.185 5.41567L113.167 5.26692H113.108H113.048V5.19254V5.11817H112.976H112.904L112.887 4.96942L112.87 4.82067H112.798H112.726V4.74629V4.67192H112.664H112.602V4.59754V4.52317H112.529H112.456L112.449 4.44259L112.441 4.36202L112.374 4.35433L112.308 4.34665L112.291 4.21317L112.274 4.07969L112.209 4.07211L112.143 4.06452L112.136 3.99634L112.128 3.92817H112.055H111.982V3.85379V3.77942H111.908H111.833V3.70668V3.63396L111.765 3.6261L111.697 3.61827L111.689 3.55161L111.682 3.48492L111.615 3.47723L111.548 3.46952L111.541 3.40134L111.533 3.33317H111.46H111.387V3.26164V3.19012L111.252 3.17328L111.118 3.15643L111.11 3.08986L111.102 3.02327L111.022 3.01551L110.941 3.00773V2.94897V2.89021L110.873 2.88235L110.805 2.87452L110.797 2.80862L110.789 2.7427L110.642 2.7256L110.495 2.70851V2.63657V2.56462H110.42H110.346V2.5055V2.44637L110.211 2.42953L110.076 2.41268L110.069 2.34611L110.061 2.27952L109.98 2.27176L109.9 2.26398V2.20601V2.14803L109.751 2.13077L109.602 2.11351V2.04157V1.96962H109.454H109.305V1.89525V1.82087H109.156H109.007V1.7465V1.67212H108.858H108.71V1.59775V1.52337H108.561H108.412V1.449V1.37462H108.264H108.115V1.31602V1.25741L108 1.24164L107.885 1.22587H107.777H107.669V1.1515V1.07712H107.445H107.222V1.00275V0.928374H107.001H106.779L106.771 0.860197L106.764 0.79202L106.474 0.785053L106.184 0.778087L106.176 0.710678L106.169 0.64327L105.803 0.636402L105.437 0.62956V0.555829V0.482124H104.917H104.396V0.407749V0.333374H102.227H100.057V0.407749ZM90.0416 35.0169V35.8846H102.437H114.833V35.0169V34.1492H102.437H90.0416V35.0169Z"/>
</mask>
<path fill-rule="evenodd" clip-rule="evenodd" d="M100.057 0.407749V0.482124H99.5988H99.1402V0.556499V0.630874L98.8737 0.631146L98.6071 0.63142L98.5142 0.64679L98.4212 0.662161V0.720893V0.779624H98.1857H97.9502V0.853999V0.928374H97.7677H97.5852L97.4702 0.944141L97.3552 0.959909V1.01852V1.07712H97.2064H97.0577V1.1515V1.22587H96.9496H96.8415L96.7265 1.24164L96.6114 1.25741V1.31602V1.37462H96.4627H96.3139V1.44657V1.51851L96.1652 1.53577L96.0164 1.55303V1.61014V1.66726L95.8677 1.68452L95.7189 1.70178V1.75889V1.81601L95.5702 1.83327L95.4214 1.85053V1.91007V1.96962H95.347H95.2727V2.0408V2.11198L95.1239 2.12879L94.9752 2.14562V2.2048V2.26398L94.8946 2.27176L94.814 2.27952L94.8063 2.34611L94.7987 2.41268L94.6638 2.42953L94.5289 2.44637V2.5055V2.56462H94.4545H94.3802V2.63744V2.71023L94.2996 2.71801L94.219 2.72577L94.2113 2.79236L94.2037 2.85893L94.0688 2.87578L93.9339 2.89262V2.96414V3.03567H93.8612H93.7885L93.7806 3.10384L93.7728 3.17202L93.7061 3.17973L93.6394 3.18742L93.6317 3.25411L93.624 3.32077L93.5574 3.32848L93.4907 3.33617L93.483 3.40286L93.4753 3.46952L93.4086 3.47723L93.3419 3.48492L93.3342 3.55161L93.3265 3.61827L93.2599 3.62598L93.1932 3.63367L93.1855 3.70036L93.1778 3.76702L93.1111 3.77473L93.0444 3.78242L93.0367 3.84911L93.029 3.91577L92.9624 3.92348L92.8957 3.93117L92.888 3.99786L92.8803 4.06452L92.8136 4.07223L92.7469 4.07992L92.7392 4.14661L92.7315 4.21327L92.666 4.22086L92.6005 4.22844L92.5839 4.36192L92.5672 4.4954L92.5006 4.50308L92.434 4.51077L92.4263 4.59134L92.4185 4.67192H92.3597H92.301L92.2931 4.74009L92.2853 4.80827L92.2194 4.81591L92.1535 4.82352L92.1363 4.97085L92.1193 5.11817H92.0473H91.9754V5.19254V5.26692H91.9158H91.8563L91.839 5.41567L91.8218 5.56442H91.7498H91.6779V5.71317V5.86192H91.6035H91.5291V6.01067V6.15942H91.4548H91.3804V6.30817V6.45692H91.306H91.2316V6.60567V6.75442H91.1573H91.0829V6.91556V7.07671H91.0241H90.9654L90.95 7.16968L90.9347 7.26265L90.9344 7.38041L90.9341 7.49817H90.8755H90.8169L90.8011 7.6132L90.7854 7.72821V7.90904V8.08987L90.7172 8.09773L90.649 8.10556L90.6421 8.40926L90.6351 8.71296H90.5771H90.5192L90.5038 8.80593L90.4884 8.8989L90.4881 9.31416L90.4879 9.72942H90.4135H90.3391V19.8198V29.9101L92.2791 29.9038L94.219 29.8974L94.2252 20.0489L94.2315 10.2005H94.2897H94.348L94.3641 9.97351L94.3802 9.7466V9.45289V9.15921H94.4387H94.4972L94.5129 9.02905L94.5285 8.8989L94.5287 8.71916L94.5289 8.53942H94.5876H94.6464L94.6618 8.44645L94.6771 8.35348L94.6774 8.22332L94.6777 8.09317H94.7363H94.7949L94.8107 7.97813L94.8264 7.86312V7.75501V7.64692H94.9008H94.9752V7.49817V7.34942H95.0348H95.0945L95.1115 7.22546L95.1286 7.1015H95.2361H95.3436L95.3515 7.15728L95.3594 7.21306L95.4276 7.2209L95.4958 7.22875V7.28907V7.34942H95.6198H95.7437V7.4114V7.47337H95.8181H95.8925V7.53302V7.59267L96.0164 7.60973L96.1404 7.62678V7.68643V7.74608H96.2024H96.2643V7.80806V7.87004H96.3387H96.4131V7.93202V7.994H96.5246H96.6362V8.05434V8.11466L96.7044 8.12252L96.7726 8.13035L96.7804 8.19853L96.7883 8.26671H96.8486H96.9089V8.32869V8.39067H96.9709H97.0329V8.45265V8.51462H97.0949H97.1568V8.5766V8.63858H97.2312H97.3056V8.69883V8.7591L97.3614 8.767L97.4171 8.77494L97.425 8.84311L97.4328 8.91129H97.4932H97.5535V9.03525V9.15921H97.6279H97.7023V9.22119V9.28317H97.7518H97.8014V9.34351V9.40383L97.8696 9.41169L97.9378 9.41952L97.9453 9.53572L97.9527 9.65194L98.0072 9.65968L98.0617 9.66744L98.0696 9.73561L98.0774 9.80379H98.1377H98.1981V9.92775V10.0517H98.2584H98.3187L98.3266 10.1199L98.3344 10.1881L98.3881 10.1957L98.4417 10.2034L98.4586 10.3259L98.4755 10.4484H98.5351H98.5948V10.5723V10.6963H98.6567H98.7187V10.8202V10.9442H98.7807H98.8427V11.0806V11.2169H98.9034H98.964L98.9715 11.3471L98.979 11.4772L99.0348 11.4852L99.0906 11.4931L99.0909 11.5843L99.0911 11.6756L99.1065 11.7685L99.1219 11.8615H99.165H99.208L99.2234 11.9545L99.2388 12.0474L99.2391 12.2148L99.2393 12.3821H99.3013H99.3633V12.63V12.878H99.4253H99.4873V21.4683V30.0586H100.392H101.297V21.6084V13.1582L101.281 12.9685L101.265 12.7788H101.219H101.173L101.173 12.6486L101.173 12.5185L101.157 12.3139L101.141 12.1094H101.098H101.056L101.04 12.0164L101.025 11.9235L101.025 11.7561L101.024 11.5888H100.978H100.931L100.916 11.5113L100.9 11.4338V11.2634V11.093H100.838H100.776V10.907V10.7211H100.714H100.652V10.5847V10.4484H100.594H100.535L100.519 10.3333L100.504 10.2183V10.1491V10.0799L100.448 10.072L100.392 10.0641L100.385 9.93395L100.377 9.80379H100.316H100.256V9.67983V9.55587H100.194H100.132V9.4815V9.40712H100.07H100.008V9.28317V9.15921H99.9482H99.8886L99.8717 9.03669L99.8549 8.91419L99.8012 8.90653L99.7476 8.8989L99.7397 8.83072L99.7319 8.76254H99.6716H99.6112V8.63858V8.51462H99.5492H99.4873V8.45265V8.39067H99.4269H99.3666L99.3587 8.32249L99.3509 8.25431L99.2966 8.2466L99.2424 8.23887L99.2346 8.18462L99.2269 8.13035L99.1733 8.12272L99.1196 8.11506L99.1028 7.99256L99.0859 7.87004H99.0263H98.9666V7.80806V7.74608H98.9046H98.8427V7.68574V7.62542L98.7745 7.61756L98.7063 7.60973L98.6986 7.55546L98.6909 7.50121L98.6366 7.49348L98.5824 7.48577L98.5745 7.41759L98.5667 7.34942H98.5063H98.446V7.28744V7.22546H98.384H98.322V7.16581V7.10616L98.1995 7.0893L98.077 7.07244L98.0694 7.01879L98.0617 6.96515L98.0075 6.95744L97.9532 6.9497L97.9455 6.89546L97.9378 6.84119L97.8696 6.83335L97.8014 6.82549V6.76518V6.70483H97.6775H97.5535V6.64285V6.58087H97.4915H97.4295V6.52209V6.46331L97.3056 6.44685L97.1816 6.43041V6.38333V6.33625L97.1134 6.3284L97.0453 6.32056L97.0376 6.26691L97.03 6.21326L96.9075 6.1964L96.785 6.17955V6.1199V6.06025H96.661H96.537V5.99827V5.93629H96.4007H96.2643V5.87664V5.81699L96.1404 5.79994L96.0164 5.78288V5.74976V5.71661L96.0722 5.70588L96.128 5.69512L96.0722 5.69175L96.0164 5.68837V5.62639V5.56442H96.0908H96.1652V5.49004V5.41567H96.2395H96.3139V5.3289V5.24212H96.3883H96.4627V5.16775V5.09337H96.537H96.6114V4.95702V4.82067H96.6858H96.7602V4.74872V4.67678L96.9089 4.65952L97.0577 4.64226V4.57032V4.49837H97.132H97.2064V4.424V4.34962H97.2808H97.3552V4.27525V4.20087H97.4295H97.5039V4.1389V4.07692H97.5783H97.6527V4.00497V3.93303L97.8014 3.91577L97.9502 3.89851V3.83897V3.77942H98.0231H98.096L98.1098 3.7571L98.1236 3.73477L98.3839 3.73177L98.6443 3.72874V3.80366V3.87858H99.0038H99.3633V3.93719V3.9958L99.4783 4.01157L99.5933 4.02733H99.6891H99.7848V4.08931V4.15129L99.9025 4.15156L100.02 4.15184L100.113 4.16721L100.206 4.18258V4.24131V4.30004H100.355H100.504V4.37442V4.44879H100.64H100.776V4.50834V4.56789L100.925 4.58514L101.074 4.6024V4.6591V4.7158L101.21 4.73283L101.347 4.74986V4.81005V4.87025H101.421H101.495V4.93044V4.99064L101.632 5.00767L101.768 5.0247V5.08227V5.13981L101.849 5.14759L101.929 5.15535L101.937 5.22353L101.945 5.29171H102.067H102.19V5.36608V5.44046H102.276H102.363V5.51483V5.58921H102.425H102.487V5.64834V5.70746L102.623 5.7245L102.76 5.74153V5.80172V5.86192H102.834H102.909V5.93629V6.01067H102.983H103.057V6.08504V6.15942H103.132H103.206V6.23379V6.30817H103.268H103.33V6.37014V6.43212H103.404H103.479V6.5065V6.58087H103.553H103.627V6.65525V6.72962H103.688H103.748L103.765 6.86598L103.782 7.00233H103.853H103.925V7.07671V7.15108H103.987H104.049V7.22546V7.29983H104.123H104.198V7.43619V7.57254H104.272H104.346V7.64692V7.72129H104.407H104.467L104.484 7.85765L104.501 7.994H104.56H104.619V8.06837V8.14275H104.694H104.768V8.27747V8.41216L104.836 8.42002L104.904 8.42785L104.912 8.57041L104.919 8.71296H104.978H105.037L105.054 8.84931L105.071 8.98567H105.13H105.189V9.13442V9.28317H105.264H105.338V9.43192V9.58067H105.397H105.456L105.471 9.67363L105.486 9.7666L105.487 9.88436L105.487 10.0021H105.549H105.611L105.611 10.1819L105.611 10.3616L105.627 10.4546L105.642 10.5475H105.701H105.76V10.831V11.1145L105.828 11.1223L105.896 11.1301L105.902 20.5944L105.908 30.0586H106.9H107.892V20.5278V10.9971L107.823 10.9892L107.755 10.9814L107.748 10.6281L107.742 10.2748H107.683H107.625L107.607 9.98973L107.589 9.70462H107.53H107.47V9.53455V9.36446L107.454 9.24945L107.439 9.13442H107.38H107.321V8.92369V8.71296H107.247H107.173V8.56421V8.41546H107.114H107.055L107.04 8.30042L107.024 8.18542V8.10209V8.01879H106.962H106.9V7.87004V7.72129H106.826H106.751V7.58657V7.45188L106.683 7.44402L106.615 7.43619L106.607 7.35561L106.599 7.27504H106.542H106.484L106.467 7.13869L106.45 7.00233H106.39H106.33V6.86598V6.72962H106.255H106.181V6.65525V6.58087H106.122H106.063L106.046 6.44452L106.029 6.30817H105.968H105.908V6.23379V6.15942H105.834H105.76V6.08504V6.01067H105.685H105.611V5.93629V5.86192H105.551H105.49L105.474 5.72695L105.457 5.59198L105.391 5.5844L105.326 5.57681L105.318 5.50863L105.31 5.44046H105.25H105.189V5.38011V5.3198L105.121 5.31194L105.053 5.3041L105.045 5.23744L105.038 5.17075L104.971 5.16306L104.904 5.15535L104.896 5.08718L104.889 5.019H104.83H104.771L104.763 4.95082L104.755 4.88265L104.687 4.87481L104.619 4.86695V4.80948V4.75199L104.483 4.73496L104.346 4.71793V4.65774V4.59754H104.272H104.198V4.52317V4.44879H104.123H104.049V4.37442V4.30004H103.914H103.78L103.772 4.23186L103.764 4.16369L103.696 4.15585L103.627 4.14799V4.09053V4.03303L103.491 4.016L103.355 3.99897V3.93878V3.87858H103.28H103.206V3.81903V3.75948L103.057 3.74223L102.909 3.72497V3.66827V3.61158L102.772 3.59454L102.636 3.57751V3.52017V3.46283L102.499 3.44579L102.363 3.42876V3.36857V3.30837H102.214H102.066V3.234V3.15962H101.917H101.768V3.1005V3.04137L101.632 3.02434L101.495 3.0073V2.94711V2.88692H101.285H101.074V2.81254V2.73817H100.863H100.652V2.67966V2.62112L100.498 2.59633L100.343 2.57152L100.498 2.56807L100.652 2.56462V2.50602V2.44741L100.767 2.43164L100.883 2.41587H101.065H101.247V2.35727V2.29866L101.362 2.28289L101.477 2.26712H101.734H101.991V2.20713V2.14711L102.146 2.13154L102.301 2.11594L103.714 2.12336L105.127 2.13077L105.135 2.19895L105.143 2.26712L105.408 2.2674L105.673 2.26767L105.766 2.28304L105.859 2.29841V2.3562V2.41401L106.088 2.42113L106.317 2.42827L106.325 2.49645L106.333 2.56462L106.449 2.5649L106.565 2.56517L106.658 2.58054L106.751 2.59591V2.65345V2.71102L106.906 2.71838L107.061 2.72577L107.069 2.79276L107.077 2.85974L107.218 2.86713L107.359 2.87452L107.366 2.94042L107.374 3.00634L107.521 3.02344L107.669 3.04053V3.09764V3.15476L107.817 3.17202L107.966 3.18928V3.24882V3.30837H108.04H108.115V3.38032V3.45226L108.264 3.46952L108.412 3.48678V3.54632V3.60587H108.487H108.561V3.67782V3.74976L108.71 3.76702L108.858 3.78428V3.85622V3.92817H108.933H109.007V3.99014V4.05212H109.082H109.156V4.12407V4.19601L109.305 4.21327L109.454 4.23053V4.30247V4.37442H109.528H109.602V4.44879V4.52317H109.677H109.751V4.59754V4.67192H109.825H109.9V4.74629V4.82067H109.974H110.049V4.89504V4.96942H110.123H110.197V5.04379V5.11817H110.272H110.346V5.19254V5.26692H110.418H110.49L110.507 5.41567L110.524 5.56442H110.596H110.668V5.63879V5.71317H110.729H110.789L110.797 5.78134L110.805 5.84952L110.871 5.85716L110.936 5.86477L110.954 6.0121L110.971 6.15942H111.043H111.115V6.23379V6.30817H111.174H111.234L111.251 6.45692L111.268 6.60567H111.34H111.412V6.68004V6.75442H111.472H111.531L111.548 6.90173L111.565 7.04907L111.631 7.05668L111.697 7.06431L111.705 7.20533L111.712 7.34634L111.779 7.35408L111.846 7.36181L111.853 7.50283L111.861 7.64384L111.928 7.65158L111.995 7.65931L112.002 7.80033L112.009 7.94134L112.076 7.94908L112.143 7.95681L112.151 8.11176L112.158 8.26671H112.216H112.273L112.289 8.35968L112.304 8.45265L112.304 8.5828L112.305 8.71296H112.363H112.422L112.437 8.80593L112.453 8.8989L112.453 9.08939L112.453 9.27987L112.521 9.28773L112.59 9.29556L112.597 9.58686L112.604 9.87817H112.661H112.719L112.735 9.9932L112.751 10.1082V20.009V29.9098H113.792H114.833V19.832V9.75421H114.759H114.685V9.36994V8.98567H114.61H114.536V8.68817V8.39067H114.461H114.387L114.387 8.19853L114.386 8.00639L114.371 7.91343L114.356 7.82046H114.297H114.238V7.69997V7.57946L114.223 7.46445L114.207 7.34942H114.148H114.09V7.20067V7.05192H114.015H113.941V6.94382V6.83571L113.925 6.7207L113.909 6.60567H113.851H113.792V6.45692V6.30817H113.72H113.648L113.631 6.15942L113.614 6.01067H113.554H113.495V5.93629V5.86192H113.42H113.346V5.71317V5.56442H113.274H113.202L113.185 5.41567L113.167 5.26692H113.108H113.048V5.19254V5.11817H112.976H112.904L112.887 4.96942L112.87 4.82067H112.798H112.726V4.74629V4.67192H112.664H112.602V4.59754V4.52317H112.529H112.456L112.449 4.44259L112.441 4.36202L112.374 4.35433L112.308 4.34665L112.291 4.21317L112.274 4.07969L112.209 4.07211L112.143 4.06452L112.136 3.99634L112.128 3.92817H112.055H111.982V3.85379V3.77942H111.908H111.833V3.70668V3.63396L111.765 3.6261L111.697 3.61827L111.689 3.55161L111.682 3.48492L111.615 3.47723L111.548 3.46952L111.541 3.40134L111.533 3.33317H111.46H111.387V3.26164V3.19012L111.252 3.17328L111.118 3.15643L111.11 3.08986L111.102 3.02327L111.022 3.01551L110.941 3.00773V2.94897V2.89021L110.873 2.88235L110.805 2.87452L110.797 2.80862L110.789 2.7427L110.642 2.7256L110.495 2.70851V2.63657V2.56462H110.42H110.346V2.5055V2.44637L110.211 2.42953L110.076 2.41268L110.069 2.34611L110.061 2.27952L109.98 2.27176L109.9 2.26398V2.20601V2.14803L109.751 2.13077L109.602 2.11351V2.04157V1.96962H109.454H109.305V1.89525V1.82087H109.156H109.007V1.7465V1.67212H108.858H108.71V1.59775V1.52337H108.561H108.412V1.449V1.37462H108.264H108.115V1.31602V1.25741L108 1.24164L107.885 1.22587H107.777H107.669V1.1515V1.07712H107.445H107.222V1.00275V0.928374H107.001H106.779L106.771 0.860197L106.764 0.79202L106.474 0.785053L106.184 0.778087L106.176 0.710678L106.169 0.64327L105.803 0.636402L105.437 0.62956V0.555829V0.482124H104.917H104.396V0.407749V0.333374H102.227H100.057V0.407749ZM90.0416 35.0169V35.8846H102.437H114.833V35.0169V34.1492H102.437H90.0416V35.0169Z" fill="white" stroke="black" stroke-width="0.495833" mask="url(#path-2-inside-1_759_46)"/>
</svg>
