<svg width="92" height="21" viewBox="0 0 92 21" fill="none" xmlns="http://www.w3.org/2000/svg">
<path d="M0.129891 5.524H2.36989V7.652H2.42589C3.50856 6.00933 5.06722 5.188 7.10189 5.188C7.99789 5.188 8.80989 5.37467 9.53789 5.748C10.2659 6.12133 10.7792 6.756 11.0779 7.652C11.5632 6.868 12.1979 6.26133 12.9819 5.832C13.7846 5.40267 14.6619 5.188 15.6139 5.188C16.3419 5.188 16.9952 5.272 17.5739 5.44C18.1712 5.58933 18.6752 5.832 19.0859 6.168C19.5152 6.504 19.8419 6.94267 20.0659 7.484C20.3086 8.00667 20.4299 8.64133 20.4299 9.388V20H18.0499V10.508C18.0499 10.06 18.0126 9.64 17.9379 9.248C17.8632 8.856 17.7232 8.52 17.5179 8.24C17.3126 7.94133 17.0232 7.708 16.6499 7.54C16.2952 7.372 15.8286 7.288 15.2499 7.288C14.0739 7.288 13.1499 7.624 12.4779 8.296C11.8059 8.968 11.4699 9.864 11.4699 10.984V20H9.08989V10.508C9.08989 10.0413 9.04322 9.612 8.94989 9.22C8.87522 8.828 8.73522 8.492 8.52989 8.212C8.32456 7.91333 8.04456 7.68933 7.68989 7.54C7.35389 7.372 6.91522 7.288 6.37389 7.288C5.68322 7.288 5.08589 7.428 4.58189 7.708C4.09656 7.988 3.69522 8.324 3.37789 8.716C3.07922 9.108 2.85522 9.51867 2.70589 9.948C2.57522 10.3587 2.50989 10.704 2.50989 10.984V20H0.129891V5.524ZM26.521 2.92H24.141V0.0079987H26.521V2.92ZM24.141 5.524H26.521V20H24.141V5.524ZM30.348 0.0079987H32.728V20H30.348V0.0079987ZM36.555 0.0079987H38.935V11.852L45.543 5.524H48.735L42.995 10.788L49.155 20H46.131L41.175 12.44L38.935 14.512V20H36.555V0.0079987ZM50.9066 0.0079987H54.0986V7.4H54.1546C54.3786 7.04533 54.6492 6.728 54.9666 6.448C55.2839 6.168 55.6292 5.93467 56.0026 5.748C56.3946 5.54267 56.7959 5.39333 57.2066 5.3C57.6359 5.188 58.0559 5.132 58.4666 5.132C59.6052 5.132 60.5946 5.33733 61.4346 5.748C62.2932 6.14 63.0026 6.69067 63.5626 7.4C64.1226 8.09067 64.5426 8.90267 64.8226 9.836C65.1026 10.7693 65.2426 11.768 65.2426 12.832C65.2426 13.8027 65.1119 14.7453 64.8506 15.66C64.6079 16.5747 64.2252 17.3867 63.7026 18.096C63.1986 18.7867 62.5546 19.3467 61.7706 19.776C60.9866 20.1867 60.0626 20.392 58.9986 20.392C58.5132 20.392 58.0186 20.3547 57.5146 20.28C57.0292 20.224 56.5626 20.1027 56.1146 19.916C55.6666 19.7293 55.2559 19.4867 54.8826 19.188C54.5279 18.8893 54.2292 18.4973 53.9866 18.012H53.9306V20H50.9066V0.0079987ZM62.0506 12.776C62.0506 12.1227 61.9666 11.488 61.7986 10.872C61.6306 10.256 61.3786 9.71467 61.0426 9.248C60.7066 8.76267 60.2866 8.38 59.7826 8.1C59.2786 7.80133 58.6999 7.652 58.0466 7.652C56.7026 7.652 55.6852 8.11867 54.9946 9.052C54.3226 9.98533 53.9866 11.2267 53.9866 12.776C53.9866 13.504 54.0706 14.1853 54.2386 14.82C54.4252 15.436 54.6959 15.968 55.0506 16.416C55.4052 16.864 55.8252 17.2187 56.3106 17.48C56.8146 17.7413 57.3932 17.872 58.0466 17.872C58.7746 17.872 59.3906 17.7227 59.8946 17.424C60.3986 17.1253 60.8092 16.7427 61.1266 16.276C61.4626 15.7907 61.6959 15.2493 61.8266 14.652C61.9759 14.036 62.0506 13.4107 62.0506 12.776ZM80.0638 16.78C80.0638 17.172 80.1104 17.452 80.2038 17.62C80.3158 17.788 80.5211 17.872 80.8198 17.872C80.9131 17.872 81.0251 17.872 81.1558 17.872C81.2864 17.872 81.4358 17.8533 81.6038 17.816V20.028C81.4918 20.0653 81.3424 20.1027 81.1558 20.14C80.9878 20.196 80.8104 20.2427 80.6238 20.28C80.4371 20.3173 80.2504 20.3453 80.0638 20.364C79.8771 20.3827 79.7184 20.392 79.5878 20.392C78.9344 20.392 78.3931 20.2613 77.9638 20C77.5344 19.7387 77.2544 19.2813 77.1238 18.628C76.4891 19.244 75.7051 19.692 74.7718 19.972C73.8571 20.252 72.9704 20.392 72.1118 20.392C71.4584 20.392 70.8331 20.2987 70.2358 20.112C69.6384 19.944 69.1064 19.692 68.6398 19.356C68.1918 19.0013 67.8278 18.5627 67.5478 18.04C67.2864 17.4987 67.1558 16.8733 67.1558 16.164C67.1558 15.268 67.3144 14.54 67.6318 13.98C67.9678 13.42 68.3971 12.9813 68.9198 12.664C69.4611 12.3467 70.0584 12.1227 70.7118 11.992C71.3838 11.8427 72.0558 11.7307 72.7278 11.656C73.3064 11.544 73.8571 11.4693 74.3798 11.432C74.9024 11.376 75.3598 11.292 75.7518 11.18C76.1624 11.068 76.4798 10.9 76.7038 10.676C76.9464 10.4333 77.0678 10.0787 77.0678 9.612C77.0678 9.20133 76.9651 8.86533 76.7598 8.604C76.5731 8.34267 76.3304 8.14667 76.0318 8.016C75.7518 7.86667 75.4344 7.77333 75.0798 7.736C74.7251 7.68 74.3891 7.652 74.0718 7.652C73.1758 7.652 72.4384 7.83867 71.8598 8.212C71.2811 8.58533 70.9544 9.164 70.8798 9.948H67.6878C67.7438 9.01467 67.9678 8.24 68.3598 7.624C68.7518 7.008 69.2464 6.51333 69.8438 6.14C70.4598 5.76667 71.1504 5.50533 71.9158 5.356C72.6811 5.20667 73.4651 5.132 74.2678 5.132C74.9771 5.132 75.6771 5.20667 76.3678 5.356C77.0584 5.50533 77.6744 5.748 78.2158 6.084C78.7758 6.42 79.2238 6.85867 79.5598 7.4C79.8958 7.92267 80.0638 8.56667 80.0638 9.332V16.78ZM76.8718 12.748C76.3864 13.0653 75.7891 13.2613 75.0798 13.336C74.3704 13.392 73.6611 13.4853 72.9518 13.616C72.6158 13.672 72.2891 13.756 71.9718 13.868C71.6544 13.9613 71.3744 14.1013 71.1318 14.288C70.8891 14.456 70.6931 14.6893 70.5438 14.988C70.4131 15.268 70.3478 15.6133 70.3478 16.024C70.3478 16.3787 70.4504 16.6773 70.6558 16.92C70.8611 17.1627 71.1038 17.3587 71.3838 17.508C71.6824 17.6387 71.9998 17.732 72.3358 17.788C72.6904 17.844 73.0078 17.872 73.2878 17.872C73.6424 17.872 74.0251 17.8253 74.4358 17.732C74.8464 17.6387 75.2291 17.48 75.5838 17.256C75.9571 17.032 76.2651 16.752 76.5078 16.416C76.7504 16.0613 76.8718 15.632 76.8718 15.128V12.748ZM83.4984 5.524H86.4944V8.324H86.5504C86.6437 7.932 86.821 7.54933 87.0824 7.176C87.3624 6.80267 87.689 6.46667 88.0624 6.168C88.4544 5.85067 88.8837 5.59867 89.3504 5.412C89.817 5.22533 90.293 5.132 90.7784 5.132C91.1517 5.132 91.4037 5.14133 91.5344 5.16C91.6837 5.17867 91.833 5.19733 91.9824 5.216V8.296C91.7584 8.25867 91.525 8.23067 91.2824 8.212C91.0584 8.17467 90.8344 8.156 90.6104 8.156C90.069 8.156 89.5557 8.268 89.0704 8.492C88.6037 8.69733 88.193 9.01467 87.8384 9.444C87.4837 9.85467 87.2037 10.368 86.9984 10.984C86.793 11.6 86.6904 12.3093 86.6904 13.112V20H83.4984V5.524Z" fill="white"/>
</svg>
