<svg width="121" height="40" viewBox="0 0 121 40" fill="none" xmlns="http://www.w3.org/2000/svg">
<path d="M6.5976 17.9898V39H0.723503V12.6275H6.25636L6.5976 17.9898ZM5.64702 24.8388L3.64836 24.8144C3.64836 22.9945 3.87585 21.3127 4.33083 19.7691C4.78581 18.2254 5.45203 16.8848 6.32948 15.7474C7.20694 14.5937 8.29564 13.7081 9.59558 13.0906C10.9118 12.4569 12.4311 12.14 14.1535 12.14C15.3559 12.14 16.4527 12.3188 17.4439 12.6763C18.4514 13.0175 19.3207 13.5619 20.0519 14.3093C20.7994 15.0568 21.3681 16.0155 21.7581 17.1854C22.1643 18.3554 22.3675 19.7691 22.3675 21.4265V39H16.4934V21.9383C16.4934 20.6546 16.2984 19.6472 15.9084 18.916C15.5347 18.1848 14.9903 17.6648 14.2754 17.356C13.5766 17.0311 12.7398 16.8686 11.7648 16.8686C10.6599 16.8686 9.71745 17.0798 8.93748 17.5023C8.17377 17.9248 7.54817 18.5016 7.0607 19.2328C6.57322 19.964 6.21574 20.809 5.98825 21.7677C5.76076 22.7264 5.64702 23.7501 5.64702 24.8388ZM22.0019 23.2789L19.2476 23.8882C19.2476 22.2958 19.467 20.7928 19.9057 19.3791C20.3607 17.9491 21.0188 16.6979 21.88 15.6255C22.7574 14.5368 23.838 13.6837 25.1217 13.0662C26.4054 12.4488 27.8759 12.14 29.5334 12.14C30.8821 12.14 32.0845 12.3269 33.1407 12.7006C34.2131 13.0581 35.1231 13.6268 35.8706 14.4068C36.618 15.1868 37.1867 16.2023 37.5767 17.4535C37.9667 18.6885 38.1617 20.1834 38.1617 21.9383V39H32.2632V21.9139C32.2632 20.5815 32.0682 19.5497 31.6783 18.8185C31.3045 18.0873 30.7683 17.5835 30.0696 17.3073C29.3709 17.0148 28.534 16.8686 27.5591 16.8686C26.6491 16.8686 25.8448 17.0392 25.1461 17.3804C24.4636 17.7054 23.8868 18.1685 23.4155 18.7697C22.9443 19.3547 22.5868 20.029 22.3431 20.7928C22.1156 21.5565 22.0019 22.3852 22.0019 23.2789ZM53.9803 24.6926H59.6838V27.593H54.9553C53.8016 27.593 52.8104 27.723 51.9817 27.983C51.1529 28.2268 50.5192 28.6249 50.0805 29.1773C49.658 29.7136 49.4468 30.4204 49.4468 31.2979C49.4468 31.7853 49.5605 32.2566 49.788 32.7116C50.0318 33.1503 50.3892 33.5484 50.8605 33.9059C51.3479 34.2471 51.941 34.5233 52.6397 34.7346C53.3385 34.9296 54.1428 35.0271 55.0528 35.0271C56.239 35.0271 57.2545 34.8483 58.0995 34.4908C58.9444 34.1334 59.5944 33.6621 60.0494 33.0772C60.5044 32.4922 60.7319 31.8666 60.7319 31.2004H66.5816C66.5816 32.6303 66.2566 33.8734 65.6066 34.9296C64.9567 35.9695 64.0873 36.8307 62.9986 37.5132C61.9099 38.1794 60.6912 38.675 59.3426 39C58.0101 39.325 56.6533 39.4875 55.2721 39.4875C53.5985 39.4875 52.0467 39.3087 50.6167 38.9513C49.203 38.5938 47.9681 38.0738 46.9119 37.3913C45.8557 36.7089 45.0351 35.8802 44.4501 34.9052C43.8652 33.914 43.5727 32.8009 43.5727 31.566C43.5727 30.461 43.8083 29.4861 44.2795 28.6411C44.7508 27.7799 45.4332 27.0568 46.3269 26.4719C47.2206 25.8869 48.3093 25.4482 49.593 25.1557C50.8767 24.8469 52.3391 24.6926 53.9803 24.6926ZM59.6838 26.3987H53.9803C52.5016 26.3987 51.1448 26.2281 49.9099 25.8869C48.6912 25.5456 47.6431 25.0744 46.7657 24.4732C45.8882 23.8557 45.2139 23.1489 44.7426 22.3527C44.2714 21.5565 44.0358 20.7115 44.0358 19.8178C44.0358 18.5666 44.3039 17.4698 44.8401 16.5273C45.3763 15.5686 46.1401 14.7724 47.1313 14.1387C48.1225 13.4887 49.3087 13.0013 50.6898 12.6763C52.071 12.335 53.5985 12.1644 55.2721 12.1644C56.7508 12.1644 58.1401 12.3432 59.44 12.7006C60.7562 13.0581 61.9181 13.5862 62.9255 14.2849C63.933 14.9674 64.721 15.7961 65.2898 16.7711C65.8747 17.746 66.1672 18.851 66.1672 20.0859H60.2931C60.2931 19.4034 60.0575 18.8022 59.5863 18.2822C59.1313 17.7623 58.5057 17.356 57.7095 17.0636C56.9295 16.7711 56.044 16.6248 55.0528 16.6248C53.8666 16.6248 52.8916 16.7954 52.1279 17.1367C51.3642 17.4779 50.8036 17.9166 50.4461 18.4529C50.0886 18.9728 49.9099 19.5253 49.9099 20.1103C49.9099 20.5978 50.0074 21.0527 50.2024 21.4752C50.4136 21.8814 50.7223 22.2389 51.1286 22.5477C51.5348 22.8402 52.0548 23.0676 52.6885 23.2301C53.3385 23.3926 54.0941 23.4739 54.9553 23.4739H59.6838V26.3987ZM52.9322 8.41085L54.5165 0.123748H59.9275L56.4421 8.41085H52.9322ZM86.4462 31.8585C86.4462 31.2735 86.3 30.7454 86.0075 30.2742C85.715 29.7867 85.1544 29.348 84.3257 28.958C83.5133 28.568 82.3108 28.2105 80.7184 27.8855C79.321 27.5768 78.0373 27.2112 76.8673 26.7887C75.7136 26.35 74.7224 25.8219 73.8937 25.2044C73.065 24.5869 72.4232 23.8557 71.9682 23.0108C71.5132 22.1658 71.2857 21.1909 71.2857 20.0859C71.2857 19.0135 71.5213 17.9979 71.9926 17.0392C72.4638 16.0805 73.1381 15.2355 74.0156 14.5043C74.8931 13.7731 75.9574 13.1962 77.2086 12.7738C78.476 12.3513 79.8897 12.14 81.4496 12.14C83.6595 12.14 85.5525 12.5138 87.1287 13.2612C88.7211 13.9925 89.9398 14.9918 90.7848 16.2592C91.6297 17.5104 92.0522 18.9241 92.0522 20.5003H86.1781C86.1781 19.8016 85.9994 19.1516 85.6419 18.5504C85.3007 17.9329 84.7807 17.4373 84.082 17.0636C83.3833 16.6736 82.5058 16.4786 81.4496 16.4786C80.4422 16.4786 79.6053 16.6411 78.9391 16.9661C78.2891 17.2748 77.8017 17.681 77.4767 18.1848C77.1679 18.6885 77.0136 19.241 77.0136 19.8422C77.0136 20.2809 77.0948 20.679 77.2573 21.0365C77.4361 21.3777 77.7285 21.6946 78.1348 21.9871C78.541 22.2633 79.0935 22.5233 79.7922 22.767C80.5072 23.0108 81.4009 23.2464 82.4733 23.4739C84.4882 23.8964 86.2188 24.4407 87.6649 25.1069C89.1274 25.7569 90.2486 26.6018 91.0285 27.6418C91.8085 28.6655 92.1985 29.9654 92.1985 31.5416C92.1985 32.7116 91.9466 33.784 91.4429 34.759C90.9554 35.7177 90.2404 36.5545 89.298 37.2695C88.3555 37.9682 87.2262 38.5125 85.91 38.9025C84.6101 39.2925 83.1477 39.4875 81.5227 39.4875C79.1341 39.4875 77.1111 39.065 75.4537 38.22C73.7962 37.3588 72.5369 36.262 71.6757 34.9296C70.8308 33.5809 70.4083 32.1835 70.4083 30.7373H76.0874C76.1524 31.826 76.453 32.6953 76.9892 33.3453C77.5417 33.979 78.2241 34.4421 79.0366 34.7346C79.8653 35.0108 80.7184 35.1489 81.5959 35.1489C82.6521 35.1489 83.5376 35.0108 84.2526 34.7346C84.9676 34.4421 85.5119 34.0521 85.8857 33.5646C86.2594 33.0609 86.4462 32.4922 86.4462 31.8585ZM96.2202 26.1062V25.5456C96.2202 23.6445 96.4964 21.8814 97.0489 20.2565C97.6013 18.6154 98.3976 17.1936 99.4375 15.9911C100.494 14.7724 101.777 13.83 103.289 13.1637C104.816 12.4813 106.538 12.14 108.456 12.14C110.389 12.14 112.112 12.4813 113.623 13.1637C115.15 13.83 116.442 14.7724 117.499 15.9911C118.555 17.1936 119.359 18.6154 119.912 20.2565C120.464 21.8814 120.74 23.6445 120.74 25.5456V26.1062C120.74 28.0074 120.464 29.7704 119.912 31.3954C119.359 33.0203 118.555 34.4421 117.499 35.6608C116.442 36.8632 115.159 37.8057 113.647 38.4881C112.136 39.1544 110.422 39.4875 108.505 39.4875C106.571 39.4875 104.84 39.1544 103.313 38.4881C101.802 37.8057 100.518 36.8632 99.4619 35.6608C98.4057 34.4421 97.6013 33.0203 97.0489 31.3954C96.4964 29.7704 96.2202 28.0074 96.2202 26.1062ZM102.094 25.5456V26.1062C102.094 27.2924 102.216 28.4136 102.46 29.4698C102.704 30.526 103.085 31.4522 103.605 32.2485C104.125 33.0447 104.792 33.6703 105.604 34.1252C106.417 34.5802 107.383 34.8077 108.505 34.8077C109.593 34.8077 110.536 34.5802 111.332 34.1252C112.144 33.6703 112.811 33.0447 113.331 32.2485C113.851 31.4522 114.232 30.526 114.476 29.4698C114.736 28.4136 114.866 27.2924 114.866 26.1062V25.5456C114.866 24.3757 114.736 23.2708 114.476 22.2308C114.232 21.1746 113.842 20.2403 113.306 19.4278C112.786 18.6154 112.12 17.9816 111.308 17.5267C110.511 17.0554 109.561 16.8198 108.456 16.8198C107.351 16.8198 106.392 17.0554 105.58 17.5267C104.783 17.9816 104.125 18.6154 103.605 19.4278C103.085 20.2403 102.704 21.1746 102.46 22.2308C102.216 23.2708 102.094 24.3757 102.094 25.5456Z" fill="white"/>
</svg>
